<?xml version="1.0" encoding="UTF-8"?>
<svg xmlns="http://www.w3.org/2000/svg" width="861" height="140" viewBox="0 0 861 140" fill="none">
  <mask id="mask0_185_256" style="mask-type:alpha" maskUnits="userSpaceOnUse" x="7" y="33" width="852" height="77">
    <path d="M57.9 88.1C57.9 94.3 55.2667 99.1667 50 102.7C44.7333 106.233 37.3333 108 27.8 108H7.5V35.2H28.7C36.7 35.2 42.7667 36.7333 46.9 39.8C51.1 42.8 53.2 47.0333 53.2 52.5C53.2 56.9667 51.6333 60.7 48.5 63.7C45.3667 66.6333 41.6 68.6 37.2 69.6V69.8C43.1333 70.2 48.0667 72.0667 52 75.4C55.9333 78.7333 57.9 82.9667 57.9 88.1ZM27.3 36.8H14.3V69.7H29C34.2 69.7 38.3 68.1667 41.3 65.1C44.3667 62.0333 45.9 58.1 45.9 53.3C45.9 48.3667 44.2667 44.4 41 41.4C37.7333 38.3333 33.1667 36.8 27.3 36.8ZM50.3 89.4C50.3 83.9333 48.5333 79.5667 45 76.3C41.5333 72.9667 36.8333 71.3 30.9 71.3H14.3V105.7C15.5 105.967 17.2333 106.133 19.5 106.2C22.8333 106.333 25.0333 106.4 26.1 106.4C42.2333 106.4 50.3 100.733 50.3 89.4ZM111.633 103.2H111.833L110.133 108H68.6328V35.2H108.733L109.933 39.8H109.733C100.333 37.9333 91.0328 37 81.8328 37H75.4328V69.2H81.2328C91.4328 69.2 98.5328 68.8333 102.533 68.1H102.733V72.3H102.533C98.1995 71.4333 91.0995 71 81.2328 71H75.4328V106.2H81.9328C92.7328 106.2 102.633 105.2 111.633 103.2ZM132.277 37H127.777V70.4H132.577C142.777 70.4 149.877 70.0333 153.877 69.3H154.077V73.5H153.877C149.543 72.6333 142.443 72.2 132.577 72.2H127.777V108H120.977V35.2H159.177L160.377 39.8H160.177C150.843 37.9333 141.543 37 132.277 37ZM163.177 72.2C163.044 61.0667 166.677 51.9 174.077 44.7C181.477 37.4333 190.477 33.8667 201.077 34C211.411 33.8667 220.144 37.3 227.277 44.3C234.411 51.2333 237.911 60.1333 237.777 71C237.911 82.1333 234.277 91.3333 226.877 98.6C219.477 105.8 210.477 109.333 199.877 109.2C189.544 109.333 180.777 105.933 173.577 99C166.444 92 162.977 83.0667 163.177 72.2ZM230.177 72C230.177 61.4 227.311 52.7 221.577 45.9C215.911 39.0333 208.811 35.6 200.277 35.6C191.811 35.4667 184.744 38.7667 179.077 45.5C173.477 52.2333 170.711 60.8 170.777 71.2C170.711 81.8 173.577 90.5667 179.377 97.5C185.177 104.367 192.344 107.733 200.877 107.6C209.211 107.733 216.211 104.433 221.877 97.7C227.544 90.9 230.311 82.3333 230.177 72ZM275.399 73.4L298.799 100.2V109.5H298.299L270.399 77.5C269.066 75.9667 267.166 75.2 264.699 75.2H255.999V108H249.199V35.2H264.099C273.433 35.2 280.533 36.7667 285.399 39.9C290.266 43.0333 292.699 47.6667 292.699 53.8C292.699 58.5333 291.233 62.4667 288.299 65.6C285.366 68.6667 281.066 71.2667 275.399 73.4ZM285.399 54.4C285.399 48.8667 283.566 44.5667 279.899 41.5C276.233 38.3667 270.933 36.8 263.999 36.8H255.999V72.9C257.333 73.1667 258.933 73.3333 260.799 73.4C263.599 73.5333 265.399 73.6 266.199 73.6C271.866 73.6 276.466 71.7667 279.999 68.1C283.599 64.3667 285.399 59.8 285.399 54.4ZM350.988 103.2H351.188L349.488 108H307.988V35.2H348.088L349.288 39.8H349.088C339.688 37.9333 330.388 37 321.188 37H314.788V69.2H320.588C330.788 69.2 337.888 68.8333 341.888 68.1H342.088V72.3H341.888C337.555 71.4333 330.455 71 320.588 71H314.788V106.2H321.288C332.088 106.2 341.988 105.2 350.988 103.2ZM423.387 108L413.987 83.9H383.687C381.62 89.2333 380.087 93.8 379.087 97.6C378.02 101.4 377.253 104.867 376.787 108H371.487C373.553 103.2 377.253 94.2 382.587 81L384.487 76.2L401.187 33.9H401.587L430.787 108H423.387ZM384.387 82.1H413.287L398.787 45.2L386.387 76.9L384.387 82.1ZM483.952 35.2H488.552C487.686 42.6 487.252 53.2 487.252 67V109.2H486.552L441.252 43.9V76.2C441.252 90.7333 441.686 101.333 442.552 108H437.952C438.819 100.6 439.252 90 439.252 76.2V41L435.452 35.5V35.2H443.552L485.252 95.8V67C485.252 52.4667 484.819 41.8667 483.952 35.2ZM564.022 70.7C564.022 82.3 560.589 91.4333 553.722 98.1C546.855 104.7 537.589 108 525.922 108H502.422V35.2H526.922C538.322 35.2 547.355 38.3333 554.022 44.6C560.689 50.8 564.022 59.5 564.022 70.7ZM556.422 71.3C556.422 61.0333 553.622 52.7333 548.022 46.4C542.422 40 535.055 36.8 525.922 36.8H509.222V105.5C512.089 106.1 517.989 106.4 526.922 106.4C536.189 106.4 543.422 103.333 548.622 97.2C553.822 91.0667 556.422 82.4333 556.422 71.3ZM638.719 108L629.319 83.9H599.019C596.952 89.2333 595.419 93.8 594.419 97.6C593.352 101.4 592.585 104.867 592.119 108H586.819C588.885 103.2 592.585 94.2 597.919 81L599.819 76.2L616.519 33.9H616.919L646.119 108H638.719ZM599.719 82.1H628.619L614.119 45.2L601.719 76.9L599.719 82.1ZM665.382 37H660.882V70.4H665.682C675.882 70.4 682.982 70.0333 686.982 69.3H687.182V73.5H686.982C682.649 72.6333 675.549 72.2 665.682 72.2H660.882V108H654.082V35.2H692.282L693.482 39.8H693.282C683.949 37.9333 674.649 37 665.382 37ZM747.136 35.2L748.436 40.1H748.236C740.836 38.0333 734.103 37 728.036 37H725.336V108H718.436V37H715.636C709.636 37 702.936 38.0333 695.536 40.1H695.336L696.536 35.2H747.136ZM799.816 103.2H800.016L798.316 108H756.816V35.2H796.916L798.116 39.8H797.916C788.516 37.9333 779.216 37 770.016 37H763.616V69.2H769.416C779.616 69.2 786.716 68.8333 790.716 68.1H790.916V72.3H790.716C786.383 71.4333 779.283 71 769.416 71H763.616V106.2H770.116C780.916 106.2 790.816 105.2 799.816 103.2ZM835.36 73.4L858.76 100.2V109.5H858.26L830.36 77.5C829.027 75.9667 827.127 75.2 824.66 75.2H815.96V108H809.16V35.2H824.06C833.393 35.2 840.493 36.7667 845.36 39.9C850.227 43.0333 852.66 47.6667 852.66 53.8C852.66 58.5333 851.193 62.4667 848.26 65.6C845.327 68.6667 841.027 71.2667 835.36 73.4ZM845.36 54.4C845.36 48.8667 843.527 44.5667 839.86 41.5C836.193 38.3667 830.893 36.8 823.96 36.8H815.96V72.9C817.293 73.1667 818.893 73.3333 820.76 73.4C823.56 73.5333 825.36 73.6 826.16 73.6C831.827 73.6 836.427 71.7667 839.96 68.1C843.56 64.3667 845.36 59.8 845.36 54.4Z" fill="#F4F2F0"></path>
  </mask>
  <g mask="url(#mask0_185_256)">
    <rect x="-29" y="70" width="912" height="130" fill="#F4F2F0"></rect>
  </g>
  <mask id="mask1_185_256" style="mask-type:alpha" maskUnits="userSpaceOnUse" x="7" y="33" width="852" height="77">
    <path d="M57.9 88.1C57.9 94.3 55.2667 99.1667 50 102.7C44.7333 106.233 37.3333 108 27.8 108H7.5V35.2H28.7C36.7 35.2 42.7667 36.7333 46.9 39.8C51.1 42.8 53.2 47.0333 53.2 52.5C53.2 56.9667 51.6333 60.7 48.5 63.7C45.3667 66.6333 41.6 68.6 37.2 69.6V69.8C43.1333 70.2 48.0667 72.0667 52 75.4C55.9333 78.7333 57.9 82.9667 57.9 88.1ZM27.3 36.8H14.3V69.7H29C34.2 69.7 38.3 68.1667 41.3 65.1C44.3667 62.0333 45.9 58.1 45.9 53.3C45.9 48.3667 44.2667 44.4 41 41.4C37.7333 38.3333 33.1667 36.8 27.3 36.8ZM50.3 89.4C50.3 83.9333 48.5333 79.5667 45 76.3C41.5333 72.9667 36.8333 71.3 30.9 71.3H14.3V105.7C15.5 105.967 17.2333 106.133 19.5 106.2C22.8333 106.333 25.0333 106.4 26.1 106.4C42.2333 106.4 50.3 100.733 50.3 89.4ZM111.633 103.2H111.833L110.133 108H68.6328V35.2H108.733L109.933 39.8H109.733C100.333 37.9333 91.0328 37 81.8328 37H75.4328V69.2H81.2328C91.4328 69.2 98.5328 68.8333 102.533 68.1H102.733V72.3H102.533C98.1995 71.4333 91.0995 71 81.2328 71H75.4328V106.2H81.9328C92.7328 106.2 102.633 105.2 111.633 103.2ZM132.277 37H127.777V70.4H132.577C142.777 70.4 149.877 70.0333 153.877 69.3H154.077V73.5H153.877C149.543 72.6333 142.443 72.2 132.577 72.2H127.777V108H120.977V35.2H159.177L160.377 39.8H160.177C150.843 37.9333 141.543 37 132.277 37ZM163.177 72.2C163.044 61.0667 166.677 51.9 174.077 44.7C181.477 37.4333 190.477 33.8667 201.077 34C211.411 33.8667 220.144 37.3 227.277 44.3C234.411 51.2333 237.911 60.1333 237.777 71C237.911 82.1333 234.277 91.3333 226.877 98.6C219.477 105.8 210.477 109.333 199.877 109.2C189.544 109.333 180.777 105.933 173.577 99C166.444 92 162.977 83.0667 163.177 72.2ZM230.177 72C230.177 61.4 227.311 52.7 221.577 45.9C215.911 39.0333 208.811 35.6 200.277 35.6C191.811 35.4667 184.744 38.7667 179.077 45.5C173.477 52.2333 170.711 60.8 170.777 71.2C170.711 81.8 173.577 90.5667 179.377 97.5C185.177 104.367 192.344 107.733 200.877 107.6C209.211 107.733 216.211 104.433 221.877 97.7C227.544 90.9 230.311 82.3333 230.177 72ZM275.399 73.4L298.799 100.2V109.5H298.299L270.399 77.5C269.066 75.9667 267.166 75.2 264.699 75.2H255.999V108H249.199V35.2H264.099C273.433 35.2 280.533 36.7667 285.399 39.9C290.266 43.0333 292.699 47.6667 292.699 53.8C292.699 58.5333 291.233 62.4667 288.299 65.6C285.366 68.6667 281.066 71.2667 275.399 73.4ZM285.399 54.4C285.399 48.8667 283.566 44.5667 279.899 41.5C276.233 38.3667 270.933 36.8 263.999 36.8H255.999V72.9C257.333 73.1667 258.933 73.3333 260.799 73.4C263.599 73.5333 265.399 73.6 266.199 73.6C271.866 73.6 276.466 71.7667 279.999 68.1C283.599 64.3667 285.399 59.8 285.399 54.4ZM350.988 103.2H351.188L349.488 108H307.988V35.2H348.088L349.288 39.8H349.088C339.688 37.9333 330.388 37 321.188 37H314.788V69.2H320.588C330.788 69.2 337.888 68.8333 341.888 68.1H342.088V72.3H341.888C337.555 71.4333 330.455 71 320.588 71H314.788V106.2H321.288C332.088 106.2 341.988 105.2 350.988 103.2ZM423.387 108L413.987 83.9H383.687C381.62 89.2333 380.087 93.8 379.087 97.6C378.02 101.4 377.253 104.867 376.787 108H371.487C373.553 103.2 377.253 94.2 382.587 81L384.487 76.2L401.187 33.9H401.587L430.787 108H423.387ZM384.387 82.1H413.287L398.787 45.2L386.387 76.9L384.387 82.1ZM483.952 35.2H488.552C487.686 42.6 487.252 53.2 487.252 67V109.2H486.552L441.252 43.9V76.2C441.252 90.7333 441.686 101.333 442.552 108H437.952C438.819 100.6 439.252 90 439.252 76.2V41L435.452 35.5V35.2H443.552L485.252 95.8V67C485.252 52.4667 484.819 41.8667 483.952 35.2ZM564.022 70.7C564.022 82.3 560.589 91.4333 553.722 98.1C546.855 104.7 537.589 108 525.922 108H502.422V35.2H526.922C538.322 35.2 547.355 38.3333 554.022 44.6C560.689 50.8 564.022 59.5 564.022 70.7ZM556.422 71.3C556.422 61.0333 553.622 52.7333 548.022 46.4C542.422 40 535.055 36.8 525.922 36.8H509.222V105.5C512.089 106.1 517.989 106.4 526.922 106.4C536.189 106.4 543.422 103.333 548.622 97.2C553.822 91.0667 556.422 82.4333 556.422 71.3ZM638.719 108L629.319 83.9H599.019C596.952 89.2333 595.419 93.8 594.419 97.6C593.352 101.4 592.585 104.867 592.119 108H586.819C588.885 103.2 592.585 94.2 597.919 81L599.819 76.2L616.519 33.9H616.919L646.119 108H638.719ZM599.719 82.1H628.619L614.119 45.2L601.719 76.9L599.719 82.1ZM665.382 37H660.882V70.4H665.682C675.882 70.4 682.982 70.0333 686.982 69.3H687.182V73.5H686.982C682.649 72.6333 675.549 72.2 665.682 72.2H660.882V108H654.082V35.2H692.282L693.482 39.8H693.282C683.949 37.9333 674.649 37 665.382 37ZM747.136 35.2L748.436 40.1H748.236C740.836 38.0333 734.103 37 728.036 37H725.336V108H718.436V37H715.636C709.636 37 702.936 38.0333 695.536 40.1H695.336L696.536 35.2H747.136ZM799.816 103.2H800.016L798.316 108H756.816V35.2H796.916L798.116 39.8H797.916C788.516 37.9333 779.216 37 770.016 37H763.616V69.2H769.416C779.616 69.2 786.716 68.8333 790.716 68.1H790.916V72.3H790.716C786.383 71.4333 779.283 71 769.416 71H763.616V106.2H770.116C780.916 106.2 790.816 105.2 799.816 103.2ZM835.36 73.4L858.76 100.2V109.5H858.26L830.36 77.5C829.027 75.9667 827.127 75.2 824.66 75.2H815.96V108H809.16V35.2H824.06C833.393 35.2 840.493 36.7667 845.36 39.9C850.227 43.0333 852.66 47.6667 852.66 53.8C852.66 58.5333 851.193 62.4667 848.26 65.6C845.327 68.6667 841.027 71.2667 835.36 73.4ZM845.36 54.4C845.36 48.8667 843.527 44.5667 839.86 41.5C836.193 38.3667 830.893 36.8 823.96 36.8H815.96V72.9C817.293 73.1667 818.893 73.3333 820.76 73.4C823.56 73.5333 825.36 73.6 826.16 73.6C831.827 73.6 836.427 71.7667 839.96 68.1C843.56 64.3667 845.36 59.8 845.36 54.4Z" fill="#F4F2F0"></path>
  </mask>
  <g mask="url(#mask1_185_256)">
    <rect x="-29" y="-60" width="912" height="130" fill="white"></rect>
  </g>
</svg>
