<?xml version="1.0" encoding="UTF-8"?>
<svg xmlns="http://www.w3.org/2000/svg" width="55" height="46" viewBox="0 0 55 46" fill="none">
  <path d="M47.9164 3.8335H6.70801V42.1668H47.9164V3.8335Z" stroke="white" stroke-width="0.75"></path>
  <path d="M39.9555 33.231H40.25V33.5416H32.2991V33.231H32.6132C33.104 33.231 33.477 33.095 33.7321 32.8038C33.9677 32.5319 34.1051 32.26 34.1051 32.0269C34.1051 31.7744 34.0462 31.522 33.9677 31.289L31.7101 26.0261H22.1689L19.7935 31.3083C19.7149 31.5608 19.656 31.7939 19.656 32.0463C19.656 32.2794 19.7935 32.5319 20.0291 32.8038C20.2843 33.095 20.6573 33.231 21.148 33.231H21.4621V33.5416H14.375V33.231H14.6891C15.2781 33.231 15.8474 33.0562 16.4167 32.726C16.9861 32.3959 17.4376 31.9104 17.791 31.289L25.7616 14.6848C26.645 13.0148 27.0769 11.9467 27.0769 11.5H27.391L36.8536 31.289C37.1874 31.9104 37.6389 32.3959 38.1886 32.726C38.758 33.0562 39.3469 33.231 39.9555 33.231ZM22.6008 25.1134H31.2782L27.0377 15.2092L22.6008 25.1134Z" fill="white"></path>
</svg>
