<?xml version="1.0" encoding="UTF-8"?>
<svg xmlns="http://www.w3.org/2000/svg" width="240" height="62" viewBox="0 0 240 62" fill="none">
  <path d="M92.9201 34.9651L93.0552 35.5775C93.2352 35.3506 93.4603 35.1692 93.7529 35.0331C94.0455 34.897 94.3381 34.829 94.6307 34.829C95.3284 34.829 95.8686 35.0558 96.2512 35.5321C96.6113 36.0084 96.8139 36.6662 96.8139 37.5054C96.8139 38.2312 96.6789 38.8209 96.4313 39.2292C96.1837 39.6374 95.9136 39.9096 95.576 40.0684C95.2609 40.2045 94.9458 40.2725 94.6307 40.2725C93.9555 40.2725 93.4378 40.0684 93.0552 39.6375H93.0327L93.0552 40.6581V42.7221H92.6275V34.9651H92.9201ZM96.3413 37.5281C96.3413 36.8023 96.2062 36.2352 95.8911 35.827C95.5985 35.4414 95.1709 35.2372 94.6307 35.2372C94.2931 35.2372 94.0005 35.328 93.7079 35.4867C93.4378 35.6455 93.2127 35.8496 93.0552 36.0991V39.1838C93.3027 39.4333 93.5278 39.6148 93.7754 39.7055C94.023 39.8189 94.2931 39.8643 94.6082 39.8643C95.0358 39.8643 95.441 39.7282 95.8011 39.4106C96.1612 39.0931 96.3413 38.4807 96.3413 37.5281ZM100.798 32.1072H101.225V40.1364H100.798V32.1072ZM105.187 38.6621C105.187 38.1858 105.344 37.8002 105.682 37.5281C105.997 37.2332 106.425 37.0971 106.942 37.0971C107.437 37.0971 107.955 37.1878 108.495 37.392V36.7342C108.495 36.2352 108.36 35.8723 108.113 35.6228C107.865 35.3506 107.482 35.2372 106.92 35.2372C106.582 35.2372 106.132 35.328 105.637 35.4867V35.0785C105.749 35.0104 105.929 34.9651 106.177 34.897C106.425 34.8516 106.672 34.829 106.92 34.829C107.595 34.829 108.113 34.9877 108.428 35.3053C108.765 35.6228 108.923 36.0991 108.923 36.7342V38.4807C108.923 38.8436 108.945 39.4106 108.968 40.1364H108.585L108.495 39.5467H108.473C108.315 39.7282 108.068 39.9096 107.752 40.0684C107.437 40.2045 107.145 40.2725 106.83 40.2725C106.334 40.2725 105.952 40.1364 105.637 39.8869C105.344 39.6148 105.187 39.2065 105.187 38.6621ZM108.495 39.0704V37.7776C108.225 37.6868 107.978 37.5961 107.775 37.5734C107.55 37.5281 107.257 37.5054 106.897 37.5054C106.492 37.5054 106.177 37.5961 105.974 37.8002C105.749 38.0044 105.637 38.2992 105.637 38.6621C105.637 39.0704 105.749 39.388 105.974 39.5921C106.177 39.7735 106.47 39.8869 106.83 39.8869C107.235 39.8869 107.55 39.7962 107.82 39.6375C108.068 39.4787 108.293 39.2972 108.495 39.0704ZM112.884 40.023V39.5467C113.289 39.7735 113.739 39.8869 114.257 39.8869C114.707 39.8869 115.045 39.7735 115.292 39.5694C115.54 39.3653 115.653 39.0704 115.653 38.7075C115.653 38.4353 115.585 38.2085 115.405 38.0724C115.247 37.9137 114.977 37.7776 114.572 37.6868C114.212 37.5961 113.919 37.5054 113.694 37.4147C113.469 37.3239 113.289 37.1878 113.132 36.9837C112.997 36.8023 112.929 36.5528 112.929 36.2579C112.929 35.7816 113.087 35.4187 113.402 35.1919C113.717 34.9424 114.122 34.829 114.617 34.829C115.067 34.829 115.495 34.9197 115.878 35.1238V35.5548C115.675 35.4414 115.473 35.3733 115.27 35.3053C115.09 35.2599 114.842 35.2145 114.595 35.2145C114.19 35.2145 113.874 35.3053 113.672 35.4867C113.447 35.6682 113.357 35.895 113.357 36.2125C113.357 36.4394 113.402 36.6208 113.492 36.7342C113.604 36.8703 113.739 36.961 113.897 37.0291C114.077 37.0971 114.347 37.1652 114.685 37.2559C115.18 37.392 115.54 37.5507 115.743 37.7549C115.968 37.9817 116.08 38.2766 116.08 38.6848C116.08 39.1611 115.923 39.5467 115.608 39.8416C115.27 40.1364 114.82 40.2725 114.257 40.2725C113.672 40.2725 113.199 40.1818 112.884 40.023ZM120.154 38.9116V35.396H119.164V34.9651H120.154V33.5815H120.582V34.9651H122.135V35.396H120.582V38.7756C120.582 39.1838 120.649 39.456 120.807 39.6148C120.964 39.7962 121.212 39.8643 121.527 39.8643C121.82 39.8643 122.045 39.8416 122.202 39.7735V40.1591C122 40.2499 121.73 40.2725 121.437 40.2725C121.032 40.2725 120.717 40.1591 120.492 39.9323C120.267 39.7055 120.154 39.3653 120.154 38.9116ZM125.938 33.2186H126.434V33.7402H125.938V33.2186ZM125.961 34.9651H126.389V40.1364H125.961V34.9651ZM130.395 37.5961C130.395 36.9383 130.507 36.394 130.733 35.9857C130.958 35.5775 131.25 35.2826 131.61 35.1011C131.97 34.9197 132.331 34.829 132.713 34.829C132.961 34.829 133.208 34.8516 133.456 34.9197C133.681 34.9651 133.884 35.0331 134.041 35.1238V35.5775C133.839 35.4867 133.636 35.396 133.388 35.328C133.141 35.2599 132.916 35.2372 132.691 35.2372C132.376 35.2372 132.083 35.3053 131.813 35.464C131.52 35.6228 131.295 35.895 131.115 36.2352C130.935 36.5981 130.845 37.0518 130.845 37.6188C130.845 38.2992 131.025 38.8436 131.363 39.2519C131.723 39.6601 132.196 39.8643 132.803 39.8643C133.186 39.8643 133.636 39.7735 134.109 39.5467V39.9777C133.726 40.1818 133.253 40.2725 132.758 40.2725C132.331 40.2725 131.925 40.1818 131.565 39.9777C131.205 39.7962 130.913 39.5014 130.71 39.0931C130.485 38.6848 130.395 38.1858 130.395 37.5961ZM143.022 40.023V39.5467C143.427 39.7735 143.877 39.8869 144.395 39.8869C144.845 39.8869 145.182 39.7735 145.43 39.5694C145.678 39.3653 145.79 39.0704 145.79 38.7075C145.79 38.4353 145.723 38.2085 145.542 38.0724C145.385 37.9137 145.115 37.7776 144.71 37.6868C144.35 37.5961 144.057 37.5054 143.832 37.4147C143.607 37.3239 143.427 37.1878 143.269 36.9837C143.134 36.8023 143.067 36.5528 143.067 36.2579C143.067 35.7816 143.224 35.4187 143.539 35.1919C143.854 34.9424 144.26 34.829 144.755 34.829C145.205 34.829 145.633 34.9197 146.015 35.1238V35.5548C145.813 35.4414 145.61 35.3733 145.407 35.3053C145.205 35.2599 144.98 35.2145 144.732 35.2145C144.327 35.2145 144.012 35.3053 143.809 35.4867C143.584 35.6682 143.494 35.895 143.494 36.2125C143.494 36.4394 143.539 36.6208 143.629 36.7342C143.742 36.8703 143.877 36.961 144.034 37.0291C144.215 37.0971 144.485 37.1652 144.822 37.2559C145.317 37.392 145.678 37.5507 145.88 37.7549C146.105 37.9817 146.218 38.2766 146.218 38.6848C146.218 39.1611 146.06 39.5467 145.723 39.8416C145.407 40.1364 144.957 40.2725 144.395 40.2725C143.787 40.2725 143.337 40.1818 143.022 40.023ZM150.044 38.1631V34.9651H150.472V38.2766C150.472 38.8436 150.584 39.2519 150.854 39.5014C151.102 39.7509 151.462 39.8643 151.912 39.8643C152.227 39.8643 152.497 39.8189 152.7 39.6828C152.925 39.5694 153.082 39.388 153.195 39.1838C153.285 38.9797 153.353 38.6621 153.353 38.2539V34.9651H153.78V38.1631C153.78 38.5941 153.735 38.9116 153.668 39.1385C153.6 39.388 153.465 39.5921 153.308 39.7735C153.127 39.955 152.925 40.0684 152.7 40.1591C152.475 40.2499 152.227 40.2725 151.935 40.2725C151.619 40.2725 151.349 40.2272 151.102 40.1364C150.854 40.0457 150.652 39.9096 150.494 39.7509C150.337 39.5694 150.224 39.388 150.134 39.1611C150.066 38.9343 150.044 38.5941 150.044 38.1631ZM158.372 34.9651L158.462 35.895C158.664 35.5775 158.957 35.328 159.317 35.1238C159.677 34.9197 160.06 34.829 160.442 34.829H160.577V35.2599H160.442C160.037 35.2599 159.655 35.3733 159.295 35.6001C158.934 35.827 158.664 36.1218 158.462 36.462V40.1364H158.034V34.9651H158.372ZM164.089 42.5861V42.0871C164.359 42.2231 164.584 42.3139 164.809 42.3819C165.011 42.4273 165.259 42.45 165.574 42.45C166.835 42.45 167.487 41.7695 167.487 40.3633V39.5921H167.465C167.285 39.7962 167.06 39.955 166.79 40.0911C166.519 40.2045 166.227 40.2725 165.912 40.2725C165.214 40.2725 164.696 40.0457 164.291 39.5694C163.909 39.0931 163.729 38.4353 163.729 37.5961C163.729 36.7342 163.931 36.0538 164.314 35.5548C164.719 35.0785 165.282 34.829 166.002 34.829C166.362 34.829 166.654 34.897 166.902 35.0558C167.127 35.2145 167.33 35.3733 167.487 35.5321H167.51L167.555 34.9651H167.915V40.3859C167.915 40.9757 167.825 41.452 167.645 41.7922C167.465 42.1551 167.195 42.4273 166.857 42.5861C166.497 42.7675 166.069 42.8582 165.552 42.8582C165.237 42.8582 164.944 42.8355 164.696 42.7902C164.426 42.7221 164.224 42.6541 164.089 42.5861ZM167.487 39.1158V36.0311C167.33 35.827 167.127 35.6455 166.857 35.4867C166.564 35.3053 166.294 35.2372 166.002 35.2372C165.417 35.2372 164.989 35.4414 164.651 35.8496C164.336 36.2806 164.179 36.8476 164.179 37.5734C164.179 38.3219 164.336 38.8663 164.629 39.2745C164.944 39.6828 165.372 39.8643 165.957 39.8643C166.227 39.8643 166.497 39.7962 166.767 39.6828C167.037 39.5467 167.262 39.3653 167.487 39.1158ZM171.899 37.5054C171.899 36.961 171.989 36.4847 172.169 36.0764C172.349 35.6909 172.619 35.3733 172.934 35.1465C173.249 34.9424 173.609 34.829 174.014 34.829C174.6 34.829 175.072 35.0331 175.432 35.4187C175.793 35.827 175.973 36.462 175.973 37.3013V37.5054H172.349C172.349 38.3219 172.529 38.9116 172.889 39.2972C173.227 39.6828 173.722 39.8643 174.352 39.8643C174.892 39.8643 175.365 39.7735 175.793 39.5694V40.0004C175.455 40.1818 174.982 40.2725 174.352 40.2725C173.564 40.2725 172.957 40.0457 172.529 39.5467C172.101 39.0704 171.899 38.39 171.899 37.5054ZM174.014 35.2145C173.564 35.2145 173.182 35.396 172.889 35.7589C172.574 36.0991 172.394 36.5528 172.371 37.0971H175.522C175.5 36.4847 175.387 36.0311 175.117 35.6909C174.87 35.3733 174.51 35.2145 174.014 35.2145ZM180.429 34.9651L180.497 35.895C180.699 35.5775 180.992 35.328 181.352 35.1238C181.712 34.9197 182.095 34.829 182.477 34.829H182.612V35.2599H182.477C182.095 35.2599 181.712 35.3733 181.329 35.6001C180.969 35.827 180.699 36.1218 180.497 36.462V40.1364H180.069V34.9651H180.429ZM185.426 34.9651H185.898C186.911 37.8002 187.474 39.3653 187.609 39.6601H187.654L189.41 34.9651H189.882L186.821 42.7221H186.349L187.361 40.1818L185.426 34.9651ZM203.882 40.1364L203.117 39.388C202.441 39.9777 201.699 40.2725 200.866 40.2725C200.326 40.2725 199.876 40.1818 199.538 39.9777C199.2 39.7735 198.953 39.524 198.795 39.2292C198.638 38.9343 198.57 38.6395 198.57 38.3219C198.57 37.8683 198.683 37.4827 198.885 37.1425C199.11 36.8249 199.493 36.5074 200.033 36.2125C199.65 35.8043 199.38 35.464 199.223 35.1692C199.088 34.8743 199.02 34.5795 199.02 34.2619C199.02 33.7629 199.178 33.3547 199.515 33.0371C199.876 32.7423 200.303 32.5835 200.843 32.5835C201.384 32.5835 201.811 32.7196 202.126 33.0144C202.464 33.2866 202.621 33.6722 202.621 34.1712C202.621 34.5114 202.531 34.8063 202.351 35.0785C202.194 35.328 201.991 35.5321 201.721 35.7135C201.474 35.895 201.158 36.0764 200.731 36.3033L203.117 38.8209C203.657 38.2085 203.927 37.392 203.927 36.3713H204.377C204.377 36.9157 204.287 37.4147 204.107 37.891C203.949 38.3673 203.702 38.7756 203.387 39.1158L204.422 40.1364H203.882ZM199.448 34.2392C199.448 34.5341 199.538 34.829 199.695 35.1011C199.853 35.3733 200.101 35.6909 200.438 36.0311C201.113 35.6909 201.586 35.396 201.811 35.1238C202.059 34.8743 202.171 34.5341 202.171 34.1485C202.171 33.7629 202.036 33.4681 201.789 33.2639C201.541 33.0825 201.226 32.9918 200.843 32.9918C200.438 32.9918 200.101 33.1052 199.83 33.332C199.583 33.5588 199.448 33.8537 199.448 34.2392ZM202.847 39.1158L200.326 36.5074C199.83 36.7796 199.493 37.0518 199.313 37.3239C199.133 37.5961 199.043 37.9363 199.043 38.3446C199.043 38.7982 199.2 39.1611 199.538 39.456C199.898 39.7509 200.326 39.8869 200.866 39.8869C201.271 39.8869 201.609 39.8189 201.924 39.7055C202.239 39.5694 202.554 39.388 202.847 39.1158ZM152.182 47.8354L152.272 48.5612C152.52 48.2664 152.767 48.0622 153.015 47.9035C153.263 47.7674 153.555 47.6993 153.915 47.6993C154.343 47.6993 154.681 47.79 154.951 47.9942C155.221 48.1983 155.401 48.4478 155.491 48.7427H155.513C155.761 48.4024 156.031 48.1303 156.301 47.9488C156.571 47.79 156.886 47.6993 157.246 47.6993C157.809 47.6993 158.237 47.8581 158.529 48.1983C158.822 48.5159 158.957 48.9695 158.957 49.5592V53.0068H158.529V49.6726C158.529 48.6293 158.102 48.1076 157.224 48.1076C156.864 48.1076 156.571 48.1983 156.324 48.4024C156.076 48.5839 155.828 48.8561 155.603 49.219V53.0068H155.176V49.5138C155.176 49.0829 155.063 48.7427 154.838 48.4705C154.613 48.221 154.275 48.1076 153.87 48.1076C153.533 48.1076 153.24 48.1756 152.992 48.3344C152.745 48.4932 152.497 48.7427 152.272 49.0375V53.0068H151.822V47.8354H152.182ZM161.973 50.3757C161.973 49.8314 162.063 49.3551 162.266 48.9468C162.446 48.5385 162.693 48.2437 163.008 48.0169C163.323 47.8127 163.684 47.6993 164.089 47.6993C164.696 47.6993 165.169 47.9035 165.507 48.289C165.867 48.6973 166.047 49.3097 166.047 50.1716V50.3757H162.423C162.423 51.1923 162.603 51.782 162.963 52.1676C163.301 52.5532 163.796 52.7346 164.449 52.7346C164.989 52.7346 165.462 52.6439 165.867 52.4398V52.8707C165.529 53.0522 165.056 53.1429 164.449 53.1429C163.638 53.1429 163.053 52.9161 162.626 52.4171C162.198 51.9408 161.973 51.2603 161.973 50.3757ZM164.089 48.0849C163.638 48.0849 163.278 48.2664 162.963 48.6066C162.648 48.9695 162.491 49.4231 162.446 49.9675H165.597C165.597 49.3551 165.462 48.8788 165.214 48.5612C164.944 48.2437 164.584 48.0849 164.089 48.0849ZM168.86 50.4438C168.86 49.6046 169.063 48.9468 169.445 48.4478C169.851 47.9488 170.391 47.6993 171.043 47.6993C171.404 47.6993 171.696 47.7674 171.966 47.8808C172.214 47.9942 172.439 48.1756 172.619 48.4478H172.641L172.619 47.8127V44.9775H173.047V51.9861C173.047 52.4171 173.069 52.7573 173.092 53.0068H172.754L172.641 52.4171H172.619C172.484 52.5985 172.259 52.78 171.944 52.9388C171.629 53.0748 171.336 53.1429 171.043 53.1429C170.638 53.1429 170.278 53.0522 169.963 52.8707C169.625 52.6666 169.355 52.3717 169.153 51.9635C168.95 51.5779 168.86 51.0562 168.86 50.4438ZM172.619 51.85V48.9014C172.169 48.3798 171.651 48.1076 171.066 48.1076C170.526 48.1076 170.098 48.3117 169.783 48.7427C169.468 49.1736 169.31 49.7407 169.31 50.4665C169.31 51.1923 169.468 51.7366 169.783 52.1449C170.098 52.5305 170.503 52.7346 171.043 52.7346C171.381 52.7346 171.696 52.6666 171.966 52.4851C172.259 52.3264 172.484 52.0995 172.619 51.85ZM176.13 50.3757C176.13 49.8314 176.22 49.3551 176.4 48.9468C176.58 48.5385 176.828 48.2437 177.165 48.0169C177.481 47.8127 177.841 47.6993 178.246 47.6993C178.831 47.6993 179.304 47.9035 179.664 48.289C180.024 48.6973 180.181 49.3097 180.181 50.1716V50.3757H176.58C176.58 51.1923 176.76 51.782 177.098 52.1676C177.458 52.5532 177.953 52.7346 178.583 52.7346C179.124 52.7346 179.596 52.6439 180.024 52.4398V52.8707C179.686 53.0522 179.191 53.1429 178.583 53.1429C177.796 53.1429 177.188 52.9161 176.76 52.4171C176.333 51.9408 176.13 51.2603 176.13 50.3757ZM178.246 48.0849C177.796 48.0849 177.413 48.2664 177.12 48.6066C176.805 48.9695 176.625 49.4231 176.58 49.9675H179.754C179.731 49.3551 179.596 48.8788 179.349 48.5612C179.101 48.2437 178.741 48.0849 178.246 48.0849ZM183.017 50.4665C183.017 49.8087 183.13 49.2643 183.355 48.8561C183.58 48.4478 183.873 48.153 184.233 47.9715C184.593 47.79 184.953 47.6993 185.336 47.6993C185.583 47.6993 185.831 47.722 186.078 47.7674C186.304 47.8354 186.506 47.9035 186.664 47.9942V48.4478C186.484 48.3344 186.258 48.2664 186.011 48.1983C185.763 48.1303 185.538 48.1076 185.313 48.1076C185.021 48.1076 184.705 48.1756 184.435 48.3344C184.143 48.4932 183.918 48.7427 183.738 49.1056C183.558 49.4685 183.468 49.9221 183.468 50.4665C183.468 51.1696 183.648 51.714 183.985 52.1222C184.345 52.5305 184.818 52.7346 185.426 52.7346C185.808 52.7346 186.258 52.6439 186.754 52.4171V52.848C186.349 53.0522 185.898 53.1429 185.381 53.1429C184.953 53.1429 184.548 53.0522 184.188 52.848C183.828 52.6666 183.535 52.3717 183.333 51.9635C183.107 51.5552 183.017 51.0562 183.017 50.4665ZM189.702 46.0889H190.197V46.6106H189.702V46.0889ZM189.747 47.8354H190.175V53.0068H189.747V47.8354ZM193.956 47.8354L194.046 48.6746C194.271 48.3798 194.519 48.1303 194.811 47.9488C195.081 47.79 195.397 47.6993 195.757 47.6993C196.274 47.6993 196.679 47.8581 196.95 48.1756C197.22 48.4932 197.355 48.9695 197.355 49.6046V53.0068H196.927V49.6499C196.927 49.1283 196.837 48.7427 196.634 48.4932C196.454 48.2437 196.139 48.1076 195.689 48.1076C195.374 48.1076 195.081 48.1983 194.789 48.4024C194.519 48.5839 194.271 48.8561 194.046 49.1736V53.0068H193.618V47.8354H193.956ZM200.371 50.3757C200.371 49.8314 200.483 49.3551 200.663 48.9468C200.843 48.5385 201.091 48.2437 201.406 48.0169C201.744 47.8127 202.104 47.6993 202.509 47.6993C203.094 47.6993 203.567 47.9035 203.927 48.289C204.264 48.6973 204.445 49.3097 204.445 50.1716V50.3757H200.843C200.843 51.1923 201.001 51.782 201.361 52.1676C201.721 52.5532 202.194 52.7346 202.847 52.7346C203.387 52.7346 203.859 52.6439 204.264 52.4398V52.8707C203.927 53.0522 203.454 53.1429 202.847 53.1429C202.059 53.1429 201.451 52.9161 201.023 52.4171C200.596 51.9408 200.371 51.2603 200.371 50.3757ZM202.509 48.0849C202.059 48.0849 201.676 48.2664 201.361 48.6066C201.068 48.9695 200.888 49.4231 200.843 49.9675H203.994C203.994 49.3551 203.859 48.8788 203.612 48.5612C203.364 48.2437 202.982 48.0849 202.509 48.0849ZM92.2224 51.5325C92.2224 51.0562 92.3799 50.6706 92.7176 50.3984C93.0327 50.1036 93.4603 49.9675 93.978 49.9675C94.4506 49.9675 94.9683 50.0582 95.531 50.2623V49.6046C95.531 49.1056 95.3959 48.7427 95.1484 48.4705C94.9008 48.221 94.4956 48.1076 93.9555 48.1076C93.5953 48.1076 93.1677 48.1983 92.65 48.3571V47.9488C92.7626 47.8808 92.9426 47.8127 93.2127 47.7674C93.4603 47.722 93.7079 47.6993 93.9555 47.6993C94.6307 47.6993 95.1259 47.8581 95.4635 48.1756C95.7786 48.4932 95.9586 48.9695 95.9586 49.6046V51.351C95.9586 51.714 95.9586 52.281 96.0036 53.0068H95.5985L95.531 52.4171H95.5085C95.3509 52.5985 95.1033 52.78 94.7882 52.9388C94.4731 53.0748 94.158 53.1429 93.8654 53.1429C93.3703 53.1429 92.9651 53.0068 92.6725 52.7346C92.3574 52.4851 92.2224 52.0769 92.2224 51.5325ZM95.531 51.9408V50.6479C95.2609 50.5572 95.0133 50.4665 94.7882 50.4211C94.5857 50.3984 94.2931 50.3757 93.9105 50.3757C93.5278 50.3757 93.2127 50.4665 92.9876 50.6706C92.7626 50.8747 92.65 51.1469 92.65 51.5325C92.65 51.9408 92.7626 52.2583 92.9876 52.4398C93.2127 52.6439 93.5053 52.7573 93.8654 52.7573C94.2481 52.7573 94.5857 52.6666 94.8333 52.5078C95.1033 52.349 95.3284 52.1676 95.531 51.9408ZM99.0196 50.3757C99.0196 49.8314 99.1097 49.3551 99.3122 48.9468C99.4923 48.5385 99.7399 48.2437 100.055 48.0169C100.393 47.8127 100.753 47.6993 101.135 47.6993C101.743 47.6993 102.216 47.9035 102.576 48.289C102.913 48.6973 103.093 49.3097 103.093 50.1716V50.3757H99.4923C99.4923 51.1923 99.6499 51.782 100.01 52.1676C100.347 52.5532 100.843 52.7346 101.495 52.7346C102.036 52.7346 102.508 52.6439 102.913 52.4398V52.8707C102.576 53.0522 102.103 53.1429 101.495 53.1429C100.708 53.1429 100.1 52.9161 99.6724 52.4171C99.2447 51.9408 99.0196 51.2603 99.0196 50.3757ZM101.158 48.0849C100.708 48.0849 100.325 48.2664 100.01 48.6066C99.6949 48.9695 99.5373 49.4231 99.4923 49.9675H102.643C102.643 49.3551 102.508 48.8788 102.261 48.5612C102.013 48.2437 101.63 48.0849 101.158 48.0849ZM105.884 52.8934V52.4171C106.289 52.6439 106.74 52.7573 107.257 52.7573C107.685 52.7573 108.045 52.6439 108.293 52.4398C108.54 52.2356 108.653 51.9408 108.653 51.5779C108.653 51.3057 108.585 51.0789 108.405 50.9428C108.248 50.784 107.955 50.6479 107.572 50.5572C107.212 50.4665 106.92 50.3757 106.695 50.285C106.47 50.1943 106.289 50.0355 106.132 49.8541C105.997 49.6726 105.929 49.4231 105.929 49.1283C105.929 48.6519 106.087 48.289 106.402 48.0395C106.717 47.8127 107.122 47.6993 107.617 47.6993C108.068 47.6993 108.495 47.79 108.878 47.9942V48.4251C108.675 48.3117 108.473 48.2437 108.27 48.1756C108.068 48.1303 107.842 48.0849 107.595 48.0849C107.19 48.0849 106.875 48.1756 106.65 48.3571C106.447 48.5385 106.334 48.7654 106.334 49.0829C106.334 49.3097 106.402 49.4912 106.492 49.6046C106.582 49.7407 106.717 49.8314 106.897 49.8994C107.077 49.9675 107.347 50.0355 107.685 50.1262C108.18 50.2623 108.518 50.4211 108.743 50.6252C108.968 50.8521 109.08 51.1469 109.08 51.5552C109.08 52.0315 108.923 52.4171 108.585 52.7119C108.27 53.0068 107.82 53.1429 107.257 53.1429C106.65 53.1429 106.199 53.0522 105.884 52.8934ZM112.231 51.782V48.2664H111.241V47.8354H112.231V46.4518H112.659V47.8354H114.212V48.2664H112.659V51.6459C112.659 52.0542 112.749 52.3264 112.884 52.4851C113.042 52.6666 113.289 52.7346 113.604 52.7346C113.897 52.7346 114.122 52.7119 114.302 52.6439V53.0295C114.077 53.1202 113.829 53.1429 113.537 53.1429C113.132 53.1429 112.817 53.0295 112.569 52.8027C112.344 52.5759 112.231 52.2356 112.231 51.782ZM117.566 44.9775V48.0849L117.543 48.6746H117.566C118.038 48.0169 118.601 47.6993 119.254 47.6993C119.816 47.6993 120.222 47.8581 120.492 48.1983C120.762 48.5385 120.874 48.9922 120.874 49.6046V53.0068H120.447V49.5592C120.447 49.1056 120.357 48.7427 120.154 48.4932C119.951 48.2437 119.659 48.1076 119.231 48.1076C118.601 48.1076 118.038 48.4705 117.566 49.1736V53.0068H117.138V44.9775H117.566ZM123.89 50.3757C123.89 49.8314 123.98 49.3551 124.183 48.9468C124.363 48.5385 124.611 48.2437 124.926 48.0169C125.241 47.8127 125.601 47.6993 126.006 47.6993C126.614 47.6993 127.086 47.9035 127.424 48.289C127.784 48.6973 127.964 49.3097 127.964 50.1716V50.3757H124.34C124.34 51.1923 124.521 51.782 124.881 52.1676C125.218 52.5532 125.713 52.7346 126.366 52.7346C126.906 52.7346 127.379 52.6439 127.784 52.4398V52.8707C127.446 53.0522 126.974 53.1429 126.366 53.1429C125.578 53.1429 124.971 52.9161 124.543 52.4171C124.115 51.9408 123.89 51.2603 123.89 50.3757ZM126.006 48.0849C125.556 48.0849 125.196 48.2664 124.881 48.6066C124.566 48.9695 124.408 49.4231 124.363 49.9675H127.514C127.514 49.3551 127.379 48.8788 127.131 48.5612C126.861 48.2437 126.501 48.0849 126.006 48.0849ZM131.295 51.782V48.2664H130.305V47.8354H131.295V46.4518H131.723V47.8354H133.276V48.2664H131.723V51.6459C131.723 52.0542 131.813 52.3264 131.97 52.4851C132.106 52.6666 132.353 52.7346 132.668 52.7346C132.961 52.7346 133.186 52.7119 133.366 52.6439V53.0295C133.141 53.1202 132.893 53.1429 132.601 53.1429C132.196 53.1429 131.88 53.0295 131.655 52.8027C131.408 52.5759 131.295 52.2356 131.295 51.782ZM136.157 46.0889H136.675V46.6106H136.157V46.0889ZM136.202 47.8354H136.63V53.0068H136.202V47.8354ZM139.713 50.4665C139.713 49.8087 139.826 49.2643 140.051 48.8561C140.276 48.4478 140.591 48.153 140.928 47.9715C141.289 47.79 141.649 47.6993 142.031 47.6993C142.279 47.6993 142.526 47.722 142.774 47.7674C143.022 47.8354 143.202 47.9035 143.359 47.9942V48.4478C143.179 48.3344 142.954 48.2664 142.707 48.1983C142.459 48.1303 142.234 48.1076 142.031 48.1076C141.716 48.1076 141.401 48.1756 141.131 48.3344C140.838 48.4932 140.613 48.7427 140.433 49.1056C140.253 49.4685 140.163 49.9221 140.163 50.4665C140.163 51.1696 140.343 51.714 140.681 52.1222C141.041 52.5305 141.514 52.7346 142.121 52.7346C142.504 52.7346 142.954 52.6439 143.449 52.4171V52.848C143.044 53.0522 142.594 53.1429 142.076 53.1429C141.649 53.1429 141.244 53.0522 140.883 52.848C140.523 52.6666 140.231 52.3717 140.028 51.9635C139.803 51.5552 139.713 51.0562 139.713 50.4665Z" fill="white"></path>
  <path d="M89.4043 24.967H89.6294V25.1834H83.5965V24.967H83.8441C84.2268 24.967 84.4969 24.8804 84.6995 24.6855C84.8796 24.4907 84.9696 24.3175 84.9696 24.1443C84.9696 23.9711 84.9471 23.798 84.8571 23.6248L83.1463 20.0312H75.9203L74.142 23.6464C74.0519 23.8196 74.0294 23.9928 74.0294 24.1443C74.0294 24.3175 74.1195 24.4907 74.2996 24.6855C74.5021 24.8804 74.7723 24.967 75.155 24.967H75.3801V25.1834H70V24.967H70.2476C70.6978 24.967 71.1255 24.8587 71.5532 24.6206C71.9809 24.4041 72.3411 24.0794 72.6112 23.6248L78.6666 12.2595C79.3194 11.1122 79.6571 10.3978 79.6571 10.0731H79.8822L87.0631 23.6248C87.3108 24.0794 87.6484 24.4041 88.0761 24.6206C88.5038 24.8587 88.954 24.967 89.4043 24.967ZM76.258 19.4034H82.8311L79.6121 12.6059L76.258 19.4034ZM91.2726 24.967C91.7229 24.967 92.1281 24.8371 92.4432 24.5773C92.7809 24.3175 92.961 23.9928 92.9835 23.6248V11.7833C92.9159 11.4586 92.7358 11.1771 92.4207 10.939C92.083 10.7009 91.7004 10.5926 91.2726 10.5926H90.935L90.9125 10.3762H98.7462C99.309 10.3762 99.9168 10.3329 100.57 10.2463C101.222 10.1597 101.673 10.0731 101.943 9.98648V12.6492H101.673V12.2812C101.673 11.9348 101.515 11.6534 101.222 11.4153C100.93 11.1771 100.592 11.0473 100.164 11.0256H94.7168V17.5633H99.2415C99.6016 17.5417 99.8943 17.4334 100.142 17.2386C100.389 17.0438 100.525 16.8056 100.525 16.5026V16.2211H100.795V19.5549H100.525V19.2302C100.525 18.9488 100.412 18.7107 100.164 18.5158C99.9168 18.321 99.6241 18.2128 99.264 18.1911H94.7168V24.5123H98.5436C99.8718 24.5123 100.862 24.2959 101.56 23.8196C102.258 23.365 102.843 22.6723 103.316 21.7414H103.564L102.01 25.1834H90.9125V24.967H91.2726ZM106.377 24.3175C106.332 24.1227 106.31 23.733 106.31 23.1702C106.31 22.6073 106.445 22.0012 106.715 21.3734H106.94C106.918 21.5249 106.918 21.6764 106.918 21.828C106.918 22.6939 107.255 23.4083 107.908 23.9711C108.561 24.5556 109.439 24.8371 110.542 24.8371C111.667 24.8371 112.59 24.5773 113.311 24.0361C114.031 23.4949 114.391 22.8238 114.391 22.0228C114.391 21.2002 114.031 20.5508 113.333 20.0312L108.201 16.2644C107.233 15.5717 106.76 14.7058 106.76 13.71C106.76 12.7142 107.188 11.8482 108.021 11.1555C108.876 10.4411 110.024 10.0731 111.465 10.0731C112.14 10.0731 112.905 10.138 113.761 10.2896H114.819V12.8873H114.571C114.571 12.2379 114.279 11.6967 113.693 11.307C113.131 10.9174 112.388 10.7225 111.465 10.7225C110.564 10.7225 109.799 10.9607 109.191 11.4369C108.561 11.9132 108.268 12.5193 108.268 13.2337C108.268 13.9481 108.606 14.5759 109.326 15.0954L114.594 18.9488C115.494 19.5766 115.944 20.4642 115.944 21.6115C115.944 22.7372 115.494 23.6681 114.571 24.3825C113.671 25.1185 112.455 25.4649 110.925 25.4649C110.159 25.4649 109.304 25.3783 108.426 25.1834C107.548 24.9886 106.873 24.7072 106.377 24.3175ZM133.233 12.2595C133.233 11.9132 133.075 11.6318 132.782 11.372C132.467 11.1338 132.107 11.004 131.702 10.9823H126.615V23.6464C126.637 24.0144 126.817 24.3392 127.132 24.5773C127.47 24.8371 127.875 24.967 128.325 24.967H128.686V25.1834H122.81V24.967H123.17C123.621 24.967 124.026 24.8371 124.363 24.5773C124.679 24.3392 124.859 24.0361 124.881 23.6681V10.9823H119.794C119.366 11.004 119.006 11.1338 118.713 11.372C118.421 11.6318 118.263 11.9132 118.263 12.2595V12.6059L117.993 12.6276V9.96484C118.263 10.0514 118.736 10.138 119.389 10.2246C120.041 10.3112 120.649 10.3545 121.212 10.3545H130.261C131.139 10.3545 131.86 10.2896 132.445 10.203C133.03 10.0947 133.368 10.0082 133.503 9.96484V12.6276L133.233 12.6059V12.2595ZM148.653 24.967C149.103 24.967 149.508 24.8371 149.846 24.5773C150.161 24.3392 150.341 24.0144 150.363 23.6464V18.1695H139.401V23.6248C139.401 23.9928 139.581 24.3175 139.918 24.5773C140.256 24.8371 140.661 24.967 141.134 24.967H141.472V25.1834H135.619V24.967H135.956C136.429 24.967 136.812 24.8371 137.15 24.5773C137.487 24.3175 137.645 23.9928 137.667 23.6248V11.8915C137.645 11.5235 137.487 11.2204 137.15 10.9607C136.812 10.7225 136.429 10.5926 135.956 10.5926H135.619V10.3762H141.472V10.5926H141.134C140.661 10.5926 140.256 10.7225 139.941 10.9607C139.603 11.2204 139.423 11.5235 139.401 11.8915V17.5417H150.363V11.8915C150.341 11.3936 150.048 11.004 149.508 10.7442C149.238 10.6359 148.945 10.5926 148.653 10.5926H148.292V10.3762H154.168V10.5926H153.807C153.357 10.5926 152.952 10.7225 152.614 10.9823C152.299 11.2421 152.119 11.5452 152.097 11.9132V23.6248C152.119 23.9928 152.299 24.3175 152.614 24.5773C152.952 24.8371 153.357 24.967 153.807 24.967H154.168V25.1834H148.292V24.967H148.653ZM157.724 24.967C158.175 24.967 158.58 24.8371 158.917 24.5773C159.233 24.3175 159.413 23.9928 159.435 23.6248V11.7833C159.368 11.4586 159.188 11.1771 158.872 10.939C158.557 10.7009 158.175 10.5926 157.724 10.5926H157.387L157.364 10.3762H165.22C165.761 10.3762 166.368 10.3329 167.021 10.2463C167.674 10.1597 168.124 10.0731 168.394 9.98648V12.6492H168.124V12.2812C168.124 11.9348 167.989 11.6534 167.697 11.4153C167.404 11.1771 167.044 11.0473 166.639 11.0256H161.168V17.5633H165.693C166.053 17.5417 166.346 17.4334 166.594 17.2386C166.864 17.0438 166.976 16.8056 166.976 16.5026V16.2211H167.246V19.5549H166.976V19.2302C166.976 18.9488 166.864 18.7107 166.616 18.5158C166.368 18.321 166.076 18.2128 165.716 18.1911H161.168V24.5123H164.995C166.323 24.5123 167.336 24.2959 168.012 23.8196C168.71 23.365 169.295 22.6723 169.768 21.7414H170.038L168.484 25.1834H157.364V24.967H157.724ZM186.966 12.2595C186.966 11.9132 186.831 11.6318 186.516 11.372C186.223 11.1338 185.863 11.004 185.458 10.9823H180.37V23.6464C180.37 24.0144 180.55 24.3392 180.888 24.5773C181.203 24.8371 181.608 24.967 182.081 24.967H182.419V25.1834H176.566V24.967H176.904C177.376 24.967 177.759 24.8371 178.097 24.5773C178.434 24.3392 178.614 24.0361 178.614 23.6681V10.9823H173.527C173.099 11.004 172.739 11.1338 172.446 11.372C172.154 11.6318 172.019 11.9132 172.019 12.2595V12.6059L171.749 12.6276V9.96484C172.019 10.0514 172.469 10.138 173.144 10.2246C173.797 10.3112 174.405 10.3545 174.945 10.3545H183.994C184.872 10.3545 185.593 10.2896 186.178 10.203C186.763 10.0947 187.123 10.0082 187.236 9.96484V12.6276L186.966 12.6059V12.2595ZM189.712 24.967C190.162 24.967 190.568 24.8371 190.883 24.5773C191.22 24.3175 191.4 23.9928 191.423 23.6248V11.8915C191.4 11.5235 191.22 11.2204 190.883 10.9607C190.568 10.7225 190.162 10.5926 189.712 10.5926H189.352V10.3762H195.205V10.5926H194.867C194.394 10.5926 194.012 10.7225 193.674 10.9607C193.336 11.2204 193.179 11.5235 193.156 11.8915V23.6248C193.156 23.9928 193.314 24.3175 193.674 24.5773C194.012 24.8371 194.394 24.967 194.867 24.967H195.205V25.1834H189.352V24.967H189.712ZM207.428 25.4649C204.592 25.4649 202.296 24.7505 200.54 23.3433C198.761 21.9362 197.861 20.0745 197.861 17.7582C197.861 15.4635 198.761 13.6017 200.54 12.1946C202.296 10.7875 204.659 10.0731 207.586 10.0731C209.972 10.0731 212.088 10.5494 213.934 11.5235L214.451 14.4893H214.226C213.821 13.277 213.033 12.3461 211.84 11.6967C210.647 11.0473 209.229 10.7225 207.586 10.7225C205.245 10.7225 203.376 11.3503 201.98 12.6276C200.562 13.9264 199.864 15.615 199.864 17.7365C199.864 19.858 200.562 21.5466 201.958 22.8454C203.331 24.1227 205.154 24.7938 207.428 24.8371C209.409 24.8371 211.097 24.4041 212.425 23.5382C213.866 22.6073 214.744 21.092 215.059 18.9921H215.262L214.947 22.3259C213.326 24.4258 210.805 25.4649 207.428 25.4649ZM218.233 24.3175C218.188 24.1227 218.143 23.733 218.143 23.1702C218.143 22.6073 218.278 22.0012 218.548 21.3734H218.796C218.773 21.5249 218.773 21.6764 218.773 21.828C218.773 22.6939 219.089 23.4083 219.764 23.9711C220.417 24.5556 221.295 24.8371 222.375 24.8371C223.501 24.8371 224.424 24.5773 225.144 24.0361C225.864 23.4949 226.247 22.8238 226.247 22.0228C226.247 21.2002 225.887 20.5508 225.189 20.0312L220.057 16.2644C219.089 15.5717 218.616 14.7058 218.616 13.71C218.616 12.7142 219.021 11.8482 219.877 11.1555C220.732 10.4411 221.88 10.0731 223.321 10.0731C223.996 10.0731 224.761 10.138 225.617 10.2896H226.675V12.8873H226.427C226.427 12.2379 226.135 11.6967 225.549 11.307C224.964 10.9174 224.221 10.7225 223.321 10.7225C222.398 10.7225 221.655 10.9607 221.025 11.4369C220.417 11.9132 220.102 12.5193 220.102 13.2337C220.102 13.9481 220.462 14.5759 221.182 15.0954L226.45 18.9488C227.35 19.5766 227.778 20.4642 227.778 21.6115C227.778 22.7372 227.328 23.6681 226.427 24.3825C225.504 25.1185 224.311 25.4649 222.78 25.4649C221.993 25.4649 221.16 25.3783 220.282 25.1834C219.404 24.9886 218.706 24.7072 218.233 24.3175Z" fill="white" stroke="#2B2A29" stroke-width="0.0762"></path>
  <path d="M56.6667 8.85718H8.88892V53.1429H56.6667V8.85718Z" stroke="white" stroke-width="0.75"></path>
  <path d="M47.4364 42.8201H47.7778V43.179H38.5593V42.8201H38.9235C39.4926 42.8201 39.925 42.663 40.2209 42.3265C40.4941 42.0124 40.6534 41.6983 40.6534 41.4291C40.6534 41.1374 40.5851 40.8458 40.4941 40.5765L37.8765 34.4965H26.8143L24.0601 40.599C23.969 40.8906 23.9007 41.1598 23.9007 41.4515C23.9007 41.7207 24.0601 42.0124 24.3332 42.3265C24.6291 42.663 25.0616 42.8201 25.6306 42.8201H25.9948V43.179H17.7778V42.8201H18.142C18.8249 42.8201 19.485 42.6182 20.1451 42.2368C20.8051 41.8553 21.3287 41.2945 21.7384 40.5765L30.9797 21.3942C32.0039 19.4647 32.5047 18.2308 32.5047 17.7148H32.8689L43.84 40.5765C44.227 41.2945 44.7505 41.8553 45.3878 42.2368C46.0479 42.6182 46.7308 42.8201 47.4364 42.8201ZM27.315 33.442H37.3757L32.4592 21.9999L27.315 33.442Z" fill="white"></path>
</svg>
