<?xml version="1.0" encoding="UTF-8"?>
<svg xmlns="http://www.w3.org/2000/svg" width="842" height="168" viewBox="0 0 842 168" fill="none">
  <mask id="mask0_272_66" style="mask-type:alpha" maskUnits="userSpaceOnUse" x="0" y="13" width="838" height="118">
    <path d="M62.4 129L51.12 100.08H14.76C12.28 106.48 10.44 111.96 9.24 116.52C7.96 121.08 7.04 125.24 6.48 129H0.12C2.6 123.24 7.04 112.44 13.44 96.6L15.72 90.84L35.76 40.08H36.24L71.28 129H62.4ZM15.6 97.92H50.28L32.88 53.64L18 91.68L15.6 97.92ZM127.741 41.64H134.101C132.021 46.36 129.621 52.08 126.901 58.8C125.621 62 124.101 65.84 122.341 70.32L118.621 79.8L98.5809 130.56H98.1009L62.9409 41.64H71.9409L101.341 116.88L116.341 78.96C120.021 69.84 122.661 62.44 124.261 56.76C126.021 51 127.181 45.96 127.741 41.64ZM186.736 129L175.456 100.08H139.096C136.616 106.48 134.776 111.96 133.576 116.52C132.296 121.08 131.376 125.24 130.816 129H124.456C126.936 123.24 131.376 112.44 137.776 96.6L140.056 90.84L160.096 40.08H160.576L195.616 129H186.736ZM139.936 97.92H174.616L157.216 53.64L142.336 91.68L139.936 97.92ZM259.415 41.64H264.935C263.895 50.52 263.375 63.24 263.375 79.8V130.44H262.535L208.175 52.08V90.84C208.175 108.28 208.695 121 209.735 129H204.215C205.255 120.12 205.775 107.4 205.775 90.84V48.6L201.215 42V41.64H210.935L260.975 114.36V79.8C260.975 62.36 260.455 49.64 259.415 41.64ZM335.938 41.64L337.498 47.52H337.258C328.378 45.04 320.298 43.8 313.018 43.8H309.778V129H301.498V43.8H298.138C290.938 43.8 282.898 45.04 274.018 47.52H273.778L275.218 41.64H335.938ZM421.655 123.24H421.895L419.855 129H370.055V41.64H418.175L419.615 47.16H419.375C408.095 44.92 396.935 43.8 385.895 43.8H378.215V82.44H385.175C397.415 82.44 405.935 82 410.735 81.12H410.975V86.16H410.735C405.535 85.12 397.015 84.6 385.175 84.6H378.215V126.84H386.015C398.975 126.84 410.855 125.64 421.655 123.24ZM486.641 41.64L488.201 47.52H487.961C479.081 45.04 471.001 43.8 463.721 43.8H460.481V129H452.201V43.8H448.841C441.641 43.8 433.601 45.04 424.721 47.52H424.481L425.921 41.64H486.641ZM570.759 129L559.479 100.08H523.119C520.639 106.48 518.799 111.96 517.599 116.52C516.319 121.08 515.399 125.24 514.839 129H508.479C510.959 123.24 515.399 112.44 521.799 96.6L524.079 90.84L544.119 40.08H544.599L579.639 129H570.759ZM523.959 97.92H558.639L541.239 53.64L526.359 91.68L523.959 97.92ZM641.395 65.4C641.395 73.56 638.315 80.08 632.155 84.96C626.075 89.84 617.875 92.28 607.555 92.28C604.115 92.28 600.715 92.04 597.355 91.56V129H589.195V41.64H607.555C618.595 41.64 626.995 43.68 632.755 47.76C638.515 51.84 641.395 57.72 641.395 65.4ZM632.395 66.84C632.395 59.48 630.235 53.76 625.915 49.68C621.595 45.6 615.275 43.56 606.955 43.56H597.355V89.4C599.915 90.04 603.035 90.36 606.715 90.36C615.035 90.36 621.395 88.32 625.795 84.24C630.195 80.16 632.395 74.36 632.395 66.84ZM685.323 87.48L713.403 119.64V130.8H712.803L679.323 92.4C677.723 90.56 675.443 89.64 672.483 89.64H662.043V129H653.883V41.64H671.763C682.963 41.64 691.483 43.52 697.323 47.28C703.163 51.04 706.083 56.6 706.083 63.96C706.083 69.64 704.323 74.36 700.803 78.12C697.283 81.8 692.123 84.92 685.323 87.48ZM697.323 64.68C697.323 58.04 695.123 52.88 690.723 49.2C686.323 45.44 679.963 43.56 671.643 43.56H662.043V86.88C663.643 87.2 665.563 87.4 667.803 87.48C671.163 87.64 673.323 87.72 674.283 87.72C681.083 87.72 686.603 85.52 690.843 81.12C695.163 76.64 697.323 71.16 697.323 64.68ZM776.03 123.24H776.27L774.23 129H724.43V41.64H772.55L773.99 47.16H773.75C762.47 44.92 751.31 43.8 740.27 43.8H732.59V82.44H739.55C751.79 82.44 760.31 82 765.11 81.12H765.35V86.16H765.11C759.91 85.12 751.39 84.6 739.55 84.6H732.59V126.84H740.39C753.35 126.84 765.23 125.64 776.03 123.24ZM749.87 32.76L729.71 13.56H741.47L750.71 32.16L749.87 32.76ZM782.322 123.84L784.122 117.96C786.922 121 790.842 123.56 795.882 125.64C800.922 127.56 805.762 128.52 810.402 128.52C816.402 128.52 821.362 126.84 825.282 123.48C829.202 120.12 831.162 115.8 831.162 110.52C831.002 105.16 829.402 101 826.362 98.04C823.322 95.08 818.522 92 811.962 88.8L805.962 86.04C801.162 83.72 797.402 81.68 794.682 79.92C787.482 75.2 783.882 69.2 783.882 61.92C783.882 55.6 786.322 50.4 791.202 46.32C796.082 42.24 802.362 40.2 810.042 40.2C818.842 40.2 826.842 42.4 834.042 46.8L832.602 52.08C825.562 45.44 817.682 42.12 808.962 42.12C803.362 42.12 798.882 43.6 795.522 46.56C792.242 49.52 790.602 53.32 790.602 57.96C790.602 61.32 791.442 64.2 793.122 66.6C794.722 68.84 796.722 70.8 799.122 72.48C801.522 74.08 805.002 75.96 809.562 78.12L815.562 80.88C820.202 83.04 824.122 85.2 827.322 87.36C834.202 91.84 837.642 98.08 837.642 106.08C837.642 113.36 834.922 119.24 829.482 123.72C824.042 128.2 817.402 130.44 809.562 130.44C804.842 130.44 800.042 129.8 795.162 128.52C790.042 127.16 785.762 125.6 782.322 123.84Z" fill="#F4F2F0"></path>
  </mask>
  <g mask="url(#mask0_272_66)">
    <rect x="-29" y="70" width="912" height="130" fill="#F4F2F0"></rect>
  </g>
  <mask id="mask1_272_66" style="mask-type:alpha" maskUnits="userSpaceOnUse" x="0" y="13" width="838" height="118">
    <path d="M62.4 129L51.12 100.08H14.76C12.28 106.48 10.44 111.96 9.24 116.52C7.96 121.08 7.04 125.24 6.48 129H0.12C2.6 123.24 7.04 112.44 13.44 96.6L15.72 90.84L35.76 40.08H36.24L71.28 129H62.4ZM15.6 97.92H50.28L32.88 53.64L18 91.68L15.6 97.92ZM127.741 41.64H134.101C132.021 46.36 129.621 52.08 126.901 58.8C125.621 62 124.101 65.84 122.341 70.32L118.621 79.8L98.5809 130.56H98.1009L62.9409 41.64H71.9409L101.341 116.88L116.341 78.96C120.021 69.84 122.661 62.44 124.261 56.76C126.021 51 127.181 45.96 127.741 41.64ZM186.736 129L175.456 100.08H139.096C136.616 106.48 134.776 111.96 133.576 116.52C132.296 121.08 131.376 125.24 130.816 129H124.456C126.936 123.24 131.376 112.44 137.776 96.6L140.056 90.84L160.096 40.08H160.576L195.616 129H186.736ZM139.936 97.92H174.616L157.216 53.64L142.336 91.68L139.936 97.92ZM259.415 41.64H264.935C263.895 50.52 263.375 63.24 263.375 79.8V130.44H262.535L208.175 52.08V90.84C208.175 108.28 208.695 121 209.735 129H204.215C205.255 120.12 205.775 107.4 205.775 90.84V48.6L201.215 42V41.64H210.935L260.975 114.36V79.8C260.975 62.36 260.455 49.64 259.415 41.64ZM335.938 41.64L337.498 47.52H337.258C328.378 45.04 320.298 43.8 313.018 43.8H309.778V129H301.498V43.8H298.138C290.938 43.8 282.898 45.04 274.018 47.52H273.778L275.218 41.64H335.938ZM421.655 123.24H421.895L419.855 129H370.055V41.64H418.175L419.615 47.16H419.375C408.095 44.92 396.935 43.8 385.895 43.8H378.215V82.44H385.175C397.415 82.44 405.935 82 410.735 81.12H410.975V86.16H410.735C405.535 85.12 397.015 84.6 385.175 84.6H378.215V126.84H386.015C398.975 126.84 410.855 125.64 421.655 123.24ZM486.641 41.64L488.201 47.52H487.961C479.081 45.04 471.001 43.8 463.721 43.8H460.481V129H452.201V43.8H448.841C441.641 43.8 433.601 45.04 424.721 47.52H424.481L425.921 41.64H486.641ZM570.759 129L559.479 100.08H523.119C520.639 106.48 518.799 111.96 517.599 116.52C516.319 121.08 515.399 125.24 514.839 129H508.479C510.959 123.24 515.399 112.44 521.799 96.6L524.079 90.84L544.119 40.08H544.599L579.639 129H570.759ZM523.959 97.92H558.639L541.239 53.64L526.359 91.68L523.959 97.92ZM641.395 65.4C641.395 73.56 638.315 80.08 632.155 84.96C626.075 89.84 617.875 92.28 607.555 92.28C604.115 92.28 600.715 92.04 597.355 91.56V129H589.195V41.64H607.555C618.595 41.64 626.995 43.68 632.755 47.76C638.515 51.84 641.395 57.72 641.395 65.4ZM632.395 66.84C632.395 59.48 630.235 53.76 625.915 49.68C621.595 45.6 615.275 43.56 606.955 43.56H597.355V89.4C599.915 90.04 603.035 90.36 606.715 90.36C615.035 90.36 621.395 88.32 625.795 84.24C630.195 80.16 632.395 74.36 632.395 66.84ZM685.323 87.48L713.403 119.64V130.8H712.803L679.323 92.4C677.723 90.56 675.443 89.64 672.483 89.64H662.043V129H653.883V41.64H671.763C682.963 41.64 691.483 43.52 697.323 47.28C703.163 51.04 706.083 56.6 706.083 63.96C706.083 69.64 704.323 74.36 700.803 78.12C697.283 81.8 692.123 84.92 685.323 87.48ZM697.323 64.68C697.323 58.04 695.123 52.88 690.723 49.2C686.323 45.44 679.963 43.56 671.643 43.56H662.043V86.88C663.643 87.2 665.563 87.4 667.803 87.48C671.163 87.64 673.323 87.72 674.283 87.72C681.083 87.72 686.603 85.52 690.843 81.12C695.163 76.64 697.323 71.16 697.323 64.68ZM776.03 123.24H776.27L774.23 129H724.43V41.64H772.55L773.99 47.16H773.75C762.47 44.92 751.31 43.8 740.27 43.8H732.59V82.44H739.55C751.79 82.44 760.31 82 765.11 81.12H765.35V86.16H765.11C759.91 85.12 751.39 84.6 739.55 84.6H732.59V126.84H740.39C753.35 126.84 765.23 125.64 776.03 123.24ZM749.87 32.76L729.71 13.56H741.47L750.71 32.16L749.87 32.76ZM782.322 123.84L784.122 117.96C786.922 121 790.842 123.56 795.882 125.64C800.922 127.56 805.762 128.52 810.402 128.52C816.402 128.52 821.362 126.84 825.282 123.48C829.202 120.12 831.162 115.8 831.162 110.52C831.002 105.16 829.402 101 826.362 98.04C823.322 95.08 818.522 92 811.962 88.8L805.962 86.04C801.162 83.72 797.402 81.68 794.682 79.92C787.482 75.2 783.882 69.2 783.882 61.92C783.882 55.6 786.322 50.4 791.202 46.32C796.082 42.24 802.362 40.2 810.042 40.2C818.842 40.2 826.842 42.4 834.042 46.8L832.602 52.08C825.562 45.44 817.682 42.12 808.962 42.12C803.362 42.12 798.882 43.6 795.522 46.56C792.242 49.52 790.602 53.32 790.602 57.96C790.602 61.32 791.442 64.2 793.122 66.6C794.722 68.84 796.722 70.8 799.122 72.48C801.522 74.08 805.002 75.96 809.562 78.12L815.562 80.88C820.202 83.04 824.122 85.2 827.322 87.36C834.202 91.84 837.642 98.08 837.642 106.08C837.642 113.36 834.922 119.24 829.482 123.72C824.042 128.2 817.402 130.44 809.562 130.44C804.842 130.44 800.042 129.8 795.162 128.52C790.042 127.16 785.762 125.6 782.322 123.84Z" fill="#F4F2F0"></path>
  </mask>
  <g mask="url(#mask1_272_66)">
    <rect x="-29" y="-60" width="912" height="141" fill="white"></rect>
  </g>
</svg>
